<svg xmlns="http://www.w3.org/2000/svg" width="6539" height="6539" fill="none" style=""><rect id="backgroundrect" width="100%" height="100%" x="0" y="0" fill="none" stroke="none"/>
            
            <mask id="path-2-outside-1_3479_2734" maskUnits="userSpaceOnUse" x="1382" y="1462" width="3775" height="3614" fill="black">
                <rect fill="white" x="1382" y="1462" width="3775" height="3614" id="svg_1"/>
                <path class="path" d="M3616.89 5046H2941.97C2928.34 5045.93 2914.99 5042.13 2903.38 5034.99C2891.77 5027.86 2882.34 5017.67 2876.14 5005.54L2620.2 4499.81C2614.41 4488.61 2611.63 4476.1 2612.13 4463.51C2612.62 4450.92 2616.38 4438.67 2623.04 4427.96C2629.63 4417.13 2638.91 4408.18 2649.98 4401.98C2661.05 4395.79 2673.53 4392.56 2686.22 4392.61H3856.37C3868.82 4392.65 3881.05 4395.8 3891.96 4401.79C3902.87 4407.78 3912.09 4416.41 3918.79 4426.9C3925.5 4437.38 3929.46 4449.37 3930.32 4461.78C3931.18 4474.19 3928.91 4486.61 3923.71 4497.91L3683.48 5004.59C3677.41 5017.07 3667.95 5027.57 3656.16 5034.9C3644.38 5042.23 3630.77 5046.07 3616.89 5046ZM2686.22 4445.17C2682.44 4445.03 2678.69 4445.9 2675.37 4447.7C2672.04 4449.49 2669.26 4452.14 2667.3 4455.38C2665.53 4458.52 2664.6 4462.07 2664.6 4465.68C2664.6 4469.29 2665.53 4472.84 2667.3 4475.98L2923.43 4981.91C2925.24 4985.36 2927.96 4988.26 2931.29 4990.29C2934.62 4992.32 2938.44 4993.41 2942.34 4993.44H3616.89C3620.86 4993.51 3624.77 4992.42 3628.13 4990.3C3631.49 4988.19 3634.16 4985.14 3635.81 4981.53L3876.04 4475.23C3877.51 4472 3878.15 4468.46 3877.92 4464.93C3877.69 4461.39 3876.59 4457.97 3874.72 4454.96C3872.85 4451.95 3870.27 4449.45 3867.2 4447.67C3864.13 4445.9 3860.67 4444.91 3857.13 4444.79L2686.22 4445.17ZM4679.41 4380.7H4179.84C4152.37 4380.71 4125.39 4373.45 4101.64 4359.67C4077.89 4345.89 4058.2 4326.08 4044.59 4302.24L3740.04 3772.87C3726.57 3749.36 3719.48 3722.73 3719.48 3695.64C3719.48 3668.55 3726.57 3641.92 3740.04 3618.41L4044.59 3076.19C4058.14 3052.04 4077.88 3031.93 4101.78 3017.94C4125.69 3003.95 4152.89 2996.58 4180.59 2996.59H4681.49C4709.78 2996.52 4737.55 3004.14 4761.84 3018.62C4786.13 3033.11 4806.02 3053.92 4819.39 3078.83C4843.98 3124.59 4878.41 3183.38 4915.11 3245.58C5040.33 3458.84 5128.86 3615.01 5126.97 3684.96C5125.46 3765.88 5021.23 3944.16 4920.59 4116.77C4881.25 4183.89 4844.93 4247.22 4818.07 4297.51C4804.72 4322.67 4784.75 4343.72 4760.31 4358.37C4735.88 4373.03 4707.91 4380.75 4679.41 4380.7ZM4180.59 3048.96C4162.2 3048.94 4144.13 3053.83 4128.26 3063.14C4112.4 3072.45 4099.31 3085.83 4090.36 3101.9L3785.06 3643.36C3776.1 3658.96 3771.38 3676.62 3771.38 3694.6C3771.38 3712.58 3776.1 3730.25 3785.06 3745.84L4089.61 4275.2C4098.64 4291 4111.69 4304.12 4127.44 4313.26C4143.19 4322.39 4161.07 4327.19 4179.27 4327.19H4678.85C4697.65 4327.32 4716.13 4322.33 4732.32 4312.78C4748.51 4303.22 4761.81 4289.45 4770.78 4272.93C4797.64 4221.89 4834.9 4157.99 4874.44 4090.3C4962.59 3939.05 5072.3 3751.13 5073.63 3683.64C5075.33 3623.32 4956.16 3420.27 4868.95 3272.24C4832.07 3209.47 4797.45 3150.3 4772.29 3103.79C4763.44 3087.21 4750.25 3073.35 4734.12 3063.69C4717.99 3054.04 4699.54 3048.94 4680.74 3048.96H4180.59ZM2372.59 4380.7H1872.63C1845.21 4380.63 1818.28 4373.36 1794.54 4359.63C1770.81 4345.89 1751.1 4326.17 1737.38 4302.43L1433.02 3773.06C1419.2 3749.64 1411.94 3722.93 1412.03 3695.73C1411.53 3668.88 1418.05 3642.36 1430.94 3618.79L1737.2 3076.19C1750.9 3052.08 1770.72 3032.03 1794.68 3018.05C1818.63 3004.08 1845.85 2996.67 1873.58 2996.59H2374.48C2402.76 2996.54 2430.52 3004.17 2454.81 3018.65C2479.1 3033.14 2498.99 3053.93 2512.38 3078.83C2537.35 3125.53 2572.53 3185.46 2609.99 3248.99C2733.32 3459.03 2820.52 3613.12 2819.96 3683.82C2818.06 3766.06 2714.21 3943.97 2613.77 4116.01C2574.42 4183.7 2538.11 4248.36 2510.68 4297.89C2497.37 4322.94 2477.48 4343.88 2453.15 4358.47C2428.81 4373.06 2400.96 4380.75 2372.59 4380.7ZM1873.58 3048.96C1855.12 3048.87 1836.97 3053.73 1821.03 3063.04C1805.09 3072.35 1791.95 3085.77 1782.97 3101.9L1477.67 3643.36C1468.92 3658.96 1464.32 3676.53 1464.32 3694.41C1464.32 3712.29 1468.92 3729.86 1477.67 3745.46L1782.4 4274.82C1791.45 4290.61 1804.51 4303.72 1820.25 4312.85C1835.99 4321.98 1853.87 4326.8 1872.07 4326.82H2372.59C2391.46 4326.82 2409.96 4321.66 2426.1 4311.9C2442.24 4302.13 2455.4 4288.13 2464.14 4271.42C2491 4220 2528.65 4155.72 2568.37 4087.66C2656.33 3936.41 2765.86 3749.43 2767.56 3682.12C2767.56 3620.3 2650.47 3420.27 2564.59 3274.13C2526.76 3210.23 2491.57 3149.73 2466.03 3102.09C2457.14 3085.56 2443.93 3071.75 2427.81 3062.13C2411.69 3052.51 2393.26 3047.43 2374.48 3047.45L1873.58 3048.96ZM3878.69 4240.04H2674.68L2683.76 4206.76C2688.68 4189.18 2751.1 4033.02 2821.66 4033.02H3733.42C3811.92 4033.02 3865.83 4186.16 3871.51 4207.9L3878.69 4240.04ZM2746.75 4188.24H3808.51C3789.6 4144.94 3755.17 4086.33 3732.85 4086.33H2822.42C2805.2 4088.79 2768.31 4143.62 2746.75 4188.24ZM3673.64 3876.1H2876.89L2902.24 3827.7C2921.16 3793.29 2981.88 3688.17 2931.56 3605.18L2638.55 3097.55C2626.44 3076.75 2615.28 3059.74 2605.64 3045.56C2537.54 2942.71 2543.97 2932.12 2709.3 2660.07L2770.58 2559.3C2782.31 2540.39 2793.28 2522.81 2802.74 2508.25C2860.63 2418.45 2860.63 2418.45 2721.02 2191.2C2700.59 2157.92 2677.33 2119.92 2651.03 2076.63C2601.29 1994.95 2562.32 1925.38 2527.89 1860.34H2439.17C2425.65 1860.44 2412.34 1857 2400.57 1850.36C2388.79 1843.73 2378.95 1834.14 2372.02 1822.53L2313 1720.63C2306.13 1708.73 2302.51 1695.23 2302.51 1681.49C2302.51 1667.75 2306.13 1654.26 2313 1642.36L2379.21 1531.76C2386.32 1519.64 2396.63 1509.7 2409.01 1503.04C2421.38 1496.37 2435.35 1493.22 2449.39 1493.95L2560.24 1499.62C2573.17 1500.26 2585.74 1504.17 2596.75 1510.98C2607.77 1517.79 2616.88 1527.28 2623.23 1538.56L2683 1642.55C2689.89 1654.2 2693.53 1667.49 2693.53 1681.02C2693.53 1694.55 2689.89 1707.84 2683 1719.49L2635.9 1801.55L2949.15 2351.14H3630.13C3674.21 2246.59 3889.29 1888.89 3945.28 1797.39L3900.64 1719.68C3893.78 1707.71 3890.25 1694.12 3890.41 1680.32C3890.58 1666.53 3894.43 1653.03 3901.58 1641.22L3967.6 1530.81C3974.51 1519.37 3984.25 1509.88 3995.87 1503.26C4007.49 1496.64 4020.62 1493.11 4033.99 1493L4147.49 1498.86C4160.27 1499.5 4172.69 1503.28 4183.65 1509.88C4194.6 1516.48 4203.76 1525.68 4210.29 1536.67L4270.45 1641.03C4277.3 1652.66 4280.91 1665.92 4280.91 1679.41C4280.91 1692.91 4277.3 1706.16 4270.45 1717.79L4211.43 1820.45C4204.53 1832.08 4194.7 1841.7 4182.91 1848.34C4171.13 1854.97 4157.8 1858.4 4144.28 1858.26H4054.23C3952.09 2047.32 3873.59 2166.05 3821.19 2245.65C3712.99 2409.94 3712.99 2409.94 3819.49 2582.74C3847.29 2627.93 3881.91 2683.89 3922.96 2755.73C3929.77 2767.45 3935.63 2777.85 3941.87 2787.49C3951.71 2805.07 3960.79 2821.33 3974.98 2844.21C4027.94 2929.1 4005.81 2962.56 3957.38 3035.73C3939.6 3062.38 3917.47 3095.66 3892.12 3141.22L3642.81 3574.74C3637.3 3583.99 3630.97 3592.72 3623.89 3600.83C3570.36 3666.81 3583.98 3691.95 3620.11 3759.45C3632.03 3781.76 3645.65 3807.09 3657.94 3837.91L3673.64 3876.1ZM2963.15 3823.73H3593.25C3586.44 3810.12 3579.82 3797.83 3574.33 3785.92C3536.5 3716.72 3508.13 3662.27 3583.79 3569.06C3588.83 3563.18 3593.32 3556.85 3597.22 3550.16L3846.16 3117.02C3872.45 3070.14 3895.15 3035.92 3913.31 3008.31C3959.47 2938.93 3965.33 2930.04 3930.15 2873.89C3915.39 2850.26 3905.93 2833.43 3895.72 2815.09C3890.42 2805.45 3884.75 2796.19 3877.94 2783.9C3837.08 2712.44 3802.27 2656.85 3775.22 2612.04C3654.73 2416.56 3654.73 2405.4 3777.87 2218.61C3831.02 2137.88 3911.42 2016.13 4015.84 1821.59L4023.4 1807.6H4144.84C4149.2 1807.62 4153.49 1806.5 4157.28 1804.34C4161.06 1802.19 4164.21 1799.07 4166.41 1795.31L4225.62 1692.46C4227.76 1688.79 4228.89 1684.61 4228.89 1680.36C4228.89 1676.11 4227.76 1671.93 4225.62 1668.26L4165.46 1563.71C4163.36 1560.1 4160.39 1557.06 4156.83 1554.88C4153.26 1552.71 4149.21 1551.45 4145.03 1551.23L4034.94 1545.56C4030.43 1545.41 4025.95 1546.45 4021.97 1548.57C4017.98 1550.69 4014.63 1553.83 4012.24 1557.66L3946.41 1667.88C3944.13 1671.71 3942.93 1676.09 3942.93 1680.55C3942.93 1685.01 3944.13 1689.38 3946.41 1693.21L4007.13 1797.76L3999 1811.19C3890.99 1986.26 3685.75 2336.4 3674.97 2383.09L3670.24 2403.32H2918.51L2578.02 1804.76L2582.75 1788.12L2637.79 1692.27C2639.88 1688.58 2640.98 1684.41 2640.98 1680.17C2640.98 1675.93 2639.88 1671.76 2637.79 1668.07L2578.21 1563.71C2576.08 1560.1 2573.08 1557.1 2569.47 1554.99C2565.86 1552.87 2561.77 1551.71 2557.59 1551.61L2447.12 1545.94C2442.73 1545.88 2438.39 1546.97 2434.55 1549.09C2430.7 1551.21 2427.47 1554.29 2425.18 1558.04L2358.97 1668.26C2356.78 1672.16 2355.63 1676.55 2355.63 1681.02C2355.63 1685.49 2356.78 1689.88 2358.97 1693.78L2417.8 1795.31C2419.97 1799.15 2423.14 1802.33 2426.96 1804.53C2430.79 1806.72 2435.14 1807.85 2439.55 1807.78H2559.67L2567.24 1821.77C2602.99 1888.7 2642.9 1962.81 2696.43 2048.65C2722.73 2091.94 2745.8 2129.75 2766.23 2162.08C2914.16 2403.32 2923.05 2417.69 2847.2 2535.1C2837.93 2549.47 2828.28 2565.72 2815.79 2585.01L2754.7 2685.97C2600.15 2939.87 2600.15 2939.87 2649.9 3014.93C2659.93 3030.06 2671.46 3047.64 2684.33 3069.57L2977.15 3577.01C3030.49 3667.75 2992.66 3767.77 2964.29 3823.73H2963.15Z" id="svg_2"/>
            </mask>
            
            
            <defs>
                <linearGradient id="paint0_linear_3479_2734" x1="0.4999999622770097" y1="0" x2="0.4999999622770097" y2="1">
                    <stop stop-color="#08675F"/>
                    <stop offset="1" stop-color="#242468"/>
                </linearGradient>
            </defs>
        <g class="currentLayer" style=""><title>Layer 1</title><path class="path" d="M3616.89 5046H2941.97C2928.34 5045.93 2914.99 5042.13 2903.38 5034.99C2891.77 5027.86 2882.34 5017.67 2876.14 5005.54L2620.2 4499.81C2614.41 4488.61 2611.63 4476.1 2612.13 4463.51C2612.62 4450.92 2616.38 4438.67 2623.04 4427.96C2629.63 4417.13 2638.91 4408.18 2649.98 4401.98C2661.05 4395.79 2673.53 4392.56 2686.22 4392.61H3856.37C3868.82 4392.65 3881.05 4395.8 3891.96 4401.79C3902.87 4407.78 3912.09 4416.41 3918.79 4426.9C3925.5 4437.38 3929.46 4449.37 3930.32 4461.78C3931.18 4474.19 3928.91 4486.61 3923.71 4497.91L3683.48 5004.59C3677.41 5017.07 3667.95 5027.57 3656.16 5034.9C3644.38 5042.23 3630.77 5046.07 3616.89 5046ZM2686.22 4445.17C2682.44 4445.03 2678.69 4445.9 2675.37 4447.7C2672.04 4449.49 2669.26 4452.14 2667.3 4455.38C2665.53 4458.52 2664.6 4462.07 2664.6 4465.68C2664.6 4469.29 2665.53 4472.84 2667.3 4475.98L2923.43 4981.91C2925.24 4985.36 2927.96 4988.26 2931.29 4990.29C2934.62 4992.32 2938.44 4993.41 2942.34 4993.44H3616.89C3620.86 4993.51 3624.77 4992.42 3628.13 4990.3C3631.49 4988.19 3634.16 4985.14 3635.81 4981.53L3876.04 4475.23C3877.51 4472 3878.15 4468.46 3877.92 4464.93C3877.69 4461.39 3876.59 4457.97 3874.72 4454.96C3872.85 4451.95 3870.27 4449.45 3867.2 4447.67C3864.13 4445.9 3860.67 4444.91 3857.13 4444.79L2686.22 4445.17ZM4679.41 4380.7H4179.84C4152.37 4380.71 4125.39 4373.45 4101.64 4359.67C4077.89 4345.89 4058.2 4326.08 4044.59 4302.24L3740.04 3772.87C3726.57 3749.36 3719.48 3722.73 3719.48 3695.64C3719.48 3668.55 3726.57 3641.92 3740.04 3618.41L4044.59 3076.19C4058.14 3052.04 4077.88 3031.93 4101.78 3017.94C4125.69 3003.95 4152.89 2996.58 4180.59 2996.59H4681.49C4709.78 2996.52 4737.55 3004.14 4761.84 3018.62C4786.13 3033.11 4806.02 3053.92 4819.39 3078.83C4843.98 3124.59 4878.41 3183.38 4915.11 3245.58C5040.33 3458.84 5128.86 3615.01 5126.97 3684.96C5125.46 3765.88 5021.23 3944.16 4920.59 4116.77C4881.25 4183.89 4844.93 4247.22 4818.07 4297.51C4804.72 4322.67 4784.75 4343.72 4760.31 4358.37C4735.88 4373.03 4707.91 4380.75 4679.41 4380.7ZM4180.59 3048.96C4162.2 3048.94 4144.13 3053.83 4128.26 3063.14C4112.4 3072.45 4099.31 3085.83 4090.36 3101.9L3785.06 3643.36C3776.1 3658.96 3771.38 3676.62 3771.38 3694.6C3771.38 3712.58 3776.1 3730.25 3785.06 3745.84L4089.61 4275.2C4098.64 4291 4111.69 4304.12 4127.44 4313.26C4143.19 4322.39 4161.07 4327.19 4179.27 4327.19H4678.85C4697.65 4327.32 4716.13 4322.33 4732.32 4312.78C4748.51 4303.22 4761.81 4289.45 4770.78 4272.93C4797.64 4221.89 4834.9 4157.99 4874.44 4090.3C4962.59 3939.05 5072.3 3751.13 5073.63 3683.64C5075.33 3623.32 4956.16 3420.27 4868.95 3272.24C4832.07 3209.47 4797.45 3150.3 4772.29 3103.79C4763.44 3087.21 4750.25 3073.35 4734.12 3063.69C4717.99 3054.04 4699.54 3048.94 4680.74 3048.96H4180.59ZM2372.59 4380.7H1872.63C1845.21 4380.63 1818.28 4373.36 1794.54 4359.63C1770.81 4345.89 1751.1 4326.17 1737.38 4302.43L1433.02 3773.06C1419.2 3749.64 1411.94 3722.93 1412.03 3695.73C1411.53 3668.88 1418.05 3642.36 1430.94 3618.79L1737.2 3076.19C1750.9 3052.08 1770.72 3032.03 1794.68 3018.05C1818.63 3004.08 1845.85 2996.67 1873.58 2996.59H2374.48C2402.76 2996.54 2430.52 3004.17 2454.81 3018.65C2479.1 3033.14 2498.99 3053.93 2512.38 3078.83C2537.35 3125.53 2572.53 3185.46 2609.99 3248.99C2733.32 3459.03 2820.52 3613.12 2819.96 3683.82C2818.06 3766.06 2714.21 3943.97 2613.77 4116.01C2574.42 4183.7 2538.11 4248.36 2510.68 4297.89C2497.37 4322.94 2477.48 4343.88 2453.15 4358.47C2428.81 4373.06 2400.96 4380.75 2372.59 4380.7ZM1873.58 3048.96C1855.12 3048.87 1836.97 3053.73 1821.03 3063.04C1805.09 3072.35 1791.95 3085.77 1782.97 3101.9L1477.67 3643.36C1468.92 3658.96 1464.32 3676.53 1464.32 3694.41C1464.32 3712.29 1468.92 3729.86 1477.67 3745.46L1782.4 4274.82C1791.45 4290.61 1804.51 4303.72 1820.25 4312.85C1835.99 4321.98 1853.87 4326.8 1872.07 4326.82H2372.59C2391.46 4326.82 2409.96 4321.66 2426.1 4311.9C2442.24 4302.13 2455.4 4288.13 2464.14 4271.42C2491 4220 2528.65 4155.72 2568.37 4087.66C2656.33 3936.41 2765.86 3749.43 2767.56 3682.12C2767.56 3620.3 2650.47 3420.27 2564.59 3274.13C2526.76 3210.23 2491.57 3149.73 2466.03 3102.09C2457.14 3085.56 2443.93 3071.75 2427.81 3062.13C2411.69 3052.51 2393.26 3047.43 2374.48 3047.45L1873.58 3048.96ZM3878.69 4240.04H2674.68L2683.76 4206.76C2688.68 4189.18 2751.1 4033.02 2821.66 4033.02H3733.42C3811.92 4033.02 3865.83 4186.16 3871.51 4207.9L3878.69 4240.04ZM2746.75 4188.24H3808.51C3789.6 4144.94 3755.17 4086.33 3732.85 4086.33H2822.42C2805.2 4088.79 2768.31 4143.62 2746.75 4188.24ZM3673.64 3876.1H2876.89L2902.24 3827.7C2921.16 3793.29 2981.88 3688.17 2931.56 3605.18L2638.55 3097.55C2626.44 3076.75 2615.28 3059.74 2605.64 3045.56C2537.54 2942.71 2543.97 2932.12 2709.3 2660.07L2770.58 2559.3C2782.31 2540.39 2793.28 2522.81 2802.74 2508.25C2860.63 2418.45 2860.63 2418.45 2721.02 2191.2C2700.59 2157.92 2677.33 2119.92 2651.03 2076.63C2601.29 1994.95 2562.32 1925.38 2527.89 1860.34H2439.17C2425.65 1860.44 2412.34 1857 2400.57 1850.36C2388.79 1843.73 2378.95 1834.14 2372.02 1822.53L2313 1720.63C2306.13 1708.73 2302.51 1695.23 2302.51 1681.49C2302.51 1667.75 2306.13 1654.26 2313 1642.36L2379.21 1531.76C2386.32 1519.64 2396.63 1509.7 2409.01 1503.04C2421.38 1496.37 2435.35 1493.22 2449.39 1493.95L2560.24 1499.62C2573.17 1500.26 2585.74 1504.17 2596.75 1510.98C2607.77 1517.79 2616.88 1527.28 2623.23 1538.56L2683 1642.55C2689.89 1654.2 2693.53 1667.49 2693.53 1681.02C2693.53 1694.55 2689.89 1707.84 2683 1719.49L2635.9 1801.55L2949.15 2351.14H3630.13C3674.21 2246.59 3889.29 1888.89 3945.28 1797.39L3900.64 1719.68C3893.78 1707.71 3890.25 1694.12 3890.41 1680.32C3890.58 1666.53 3894.43 1653.03 3901.58 1641.22L3967.6 1530.81C3974.51 1519.37 3984.25 1509.88 3995.87 1503.26C4007.49 1496.64 4020.62 1493.11 4033.99 1493L4147.49 1498.86C4160.27 1499.5 4172.69 1503.28 4183.65 1509.88C4194.6 1516.48 4203.76 1525.68 4210.29 1536.67L4270.45 1641.03C4277.3 1652.66 4280.91 1665.92 4280.91 1679.41C4280.91 1692.91 4277.3 1706.16 4270.45 1717.79L4211.43 1820.45C4204.53 1832.08 4194.7 1841.7 4182.91 1848.34C4171.13 1854.97 4157.8 1858.4 4144.28 1858.26H4054.23C3952.09 2047.32 3873.59 2166.05 3821.19 2245.65C3712.99 2409.94 3712.99 2409.94 3819.49 2582.74C3847.29 2627.93 3881.91 2683.89 3922.96 2755.73C3929.77 2767.45 3935.63 2777.85 3941.87 2787.49C3951.71 2805.07 3960.79 2821.33 3974.98 2844.21C4027.94 2929.1 4005.81 2962.56 3957.38 3035.73C3939.6 3062.38 3917.47 3095.66 3892.12 3141.22L3642.81 3574.74C3637.3 3583.99 3630.97 3592.72 3623.89 3600.83C3570.36 3666.81 3583.98 3691.95 3620.11 3759.45C3632.03 3781.76 3645.65 3807.09 3657.94 3837.91L3673.64 3876.1ZM2963.15 3823.73H3593.25C3586.44 3810.12 3579.82 3797.83 3574.33 3785.92C3536.5 3716.72 3508.13 3662.27 3583.79 3569.06C3588.83 3563.18 3593.32 3556.85 3597.22 3550.16L3846.16 3117.02C3872.45 3070.14 3895.15 3035.92 3913.31 3008.31C3959.47 2938.93 3965.33 2930.04 3930.15 2873.89C3915.39 2850.26 3905.93 2833.43 3895.72 2815.09C3890.42 2805.45 3884.75 2796.19 3877.94 2783.9C3837.08 2712.44 3802.27 2656.85 3775.22 2612.04C3654.73 2416.56 3654.73 2405.4 3777.87 2218.61C3831.02 2137.88 3911.42 2016.13 4015.84 1821.59L4023.4 1807.6H4144.84C4149.2 1807.62 4153.49 1806.5 4157.28 1804.34C4161.06 1802.19 4164.21 1799.07 4166.41 1795.31L4225.62 1692.46C4227.76 1688.79 4228.89 1684.61 4228.89 1680.36C4228.89 1676.11 4227.76 1671.93 4225.62 1668.26L4165.46 1563.71C4163.36 1560.1 4160.39 1557.06 4156.83 1554.88C4153.26 1552.71 4149.21 1551.45 4145.03 1551.23L4034.94 1545.56C4030.43 1545.41 4025.95 1546.45 4021.97 1548.57C4017.98 1550.69 4014.63 1553.83 4012.24 1557.66L3946.41 1667.88C3944.13 1671.71 3942.93 1676.09 3942.93 1680.55C3942.93 1685.01 3944.13 1689.38 3946.41 1693.21L4007.13 1797.76L3999 1811.19C3890.99 1986.26 3685.75 2336.4 3674.97 2383.09L3670.24 2403.32H2918.51L2578.02 1804.76L2582.75 1788.12L2637.79 1692.27C2639.88 1688.58 2640.98 1684.41 2640.98 1680.17C2640.98 1675.93 2639.88 1671.76 2637.79 1668.07L2578.21 1563.71C2576.08 1560.1 2573.08 1557.1 2569.47 1554.99C2565.86 1552.87 2561.77 1551.71 2557.59 1551.61L2447.12 1545.94C2442.73 1545.88 2438.39 1546.97 2434.55 1549.09C2430.7 1551.21 2427.47 1554.29 2425.18 1558.04L2358.97 1668.26C2356.78 1672.16 2355.63 1676.55 2355.63 1681.02C2355.63 1685.49 2356.78 1689.88 2358.97 1693.78L2417.8 1795.31C2419.97 1799.15 2423.14 1802.33 2426.96 1804.53C2430.79 1806.72 2435.14 1807.85 2439.55 1807.78H2559.67L2567.24 1821.77C2602.99 1888.7 2642.9 1962.81 2696.43 2048.65C2722.73 2091.94 2745.8 2129.75 2766.23 2162.08C2914.16 2403.32 2923.05 2417.69 2847.2 2535.1C2837.93 2549.47 2828.28 2565.72 2815.79 2585.01L2754.7 2685.97C2600.15 2939.87 2600.15 2939.87 2649.9 3014.93C2659.93 3030.06 2671.46 3047.64 2684.33 3069.57L2977.15 3577.01C3030.49 3667.75 2992.66 3767.77 2964.29 3823.73H2963.15Z" fill="#EED600" id="svg_4"/><path class="path" d="M3616.89 5046H2941.97C2928.34 5045.93 2914.99 5042.13 2903.38 5034.99C2891.77 5027.86 2882.34 5017.67 2876.14 5005.54L2620.2 4499.81C2614.41 4488.61 2611.63 4476.1 2612.13 4463.51C2612.62 4450.92 2616.38 4438.67 2623.04 4427.96C2629.63 4417.13 2638.91 4408.18 2649.98 4401.98C2661.05 4395.79 2673.53 4392.56 2686.22 4392.61H3856.37C3868.82 4392.65 3881.05 4395.8 3891.96 4401.79C3902.87 4407.78 3912.09 4416.41 3918.79 4426.9C3925.5 4437.38 3929.46 4449.37 3930.32 4461.78C3931.18 4474.19 3928.91 4486.61 3923.71 4497.91L3683.48 5004.59C3677.41 5017.07 3667.95 5027.57 3656.16 5034.9C3644.38 5042.23 3630.77 5046.07 3616.89 5046ZM2686.22 4445.17C2682.44 4445.03 2678.69 4445.9 2675.37 4447.7C2672.04 4449.49 2669.26 4452.14 2667.3 4455.38C2665.53 4458.52 2664.6 4462.07 2664.6 4465.68C2664.6 4469.29 2665.53 4472.84 2667.3 4475.98L2923.43 4981.91C2925.24 4985.36 2927.96 4988.26 2931.29 4990.29C2934.62 4992.32 2938.44 4993.41 2942.34 4993.44H3616.89C3620.86 4993.51 3624.77 4992.42 3628.13 4990.3C3631.49 4988.19 3634.16 4985.14 3635.81 4981.53L3876.04 4475.23C3877.51 4472 3878.15 4468.46 3877.92 4464.93C3877.69 4461.39 3876.59 4457.97 3874.72 4454.96C3872.85 4451.95 3870.27 4449.45 3867.2 4447.67C3864.13 4445.9 3860.67 4444.91 3857.13 4444.79L2686.22 4445.17ZM4679.41 4380.7H4179.84C4152.37 4380.71 4125.39 4373.45 4101.64 4359.67C4077.89 4345.89 4058.2 4326.08 4044.59 4302.24L3740.04 3772.87C3726.57 3749.36 3719.48 3722.73 3719.48 3695.64C3719.48 3668.55 3726.57 3641.92 3740.04 3618.41L4044.59 3076.19C4058.14 3052.04 4077.88 3031.93 4101.78 3017.94C4125.69 3003.95 4152.89 2996.58 4180.59 2996.59H4681.49C4709.78 2996.52 4737.55 3004.14 4761.84 3018.62C4786.13 3033.11 4806.02 3053.92 4819.39 3078.83C4843.98 3124.59 4878.41 3183.38 4915.11 3245.58C5040.33 3458.84 5128.86 3615.01 5126.97 3684.96C5125.46 3765.88 5021.23 3944.16 4920.59 4116.77C4881.25 4183.89 4844.93 4247.22 4818.07 4297.51C4804.72 4322.67 4784.75 4343.72 4760.31 4358.37C4735.88 4373.03 4707.91 4380.75 4679.41 4380.7ZM4180.59 3048.96C4162.2 3048.94 4144.13 3053.83 4128.26 3063.14C4112.4 3072.45 4099.31 3085.83 4090.36 3101.9L3785.06 3643.36C3776.1 3658.96 3771.38 3676.62 3771.38 3694.6C3771.38 3712.58 3776.1 3730.25 3785.06 3745.84L4089.61 4275.2C4098.64 4291 4111.69 4304.12 4127.44 4313.26C4143.19 4322.39 4161.07 4327.19 4179.27 4327.19H4678.85C4697.65 4327.32 4716.13 4322.33 4732.32 4312.78C4748.51 4303.22 4761.81 4289.45 4770.78 4272.93C4797.64 4221.89 4834.9 4157.99 4874.44 4090.3C4962.59 3939.05 5072.3 3751.13 5073.63 3683.64C5075.33 3623.32 4956.16 3420.27 4868.95 3272.24C4832.07 3209.47 4797.45 3150.3 4772.29 3103.79C4763.44 3087.21 4750.25 3073.35 4734.12 3063.69C4717.99 3054.04 4699.54 3048.94 4680.74 3048.96H4180.59ZM2372.59 4380.7H1872.63C1845.21 4380.63 1818.28 4373.36 1794.54 4359.63C1770.81 4345.89 1751.1 4326.17 1737.38 4302.43L1433.02 3773.06C1419.2 3749.64 1411.94 3722.93 1412.03 3695.73C1411.53 3668.88 1418.05 3642.36 1430.94 3618.79L1737.2 3076.19C1750.9 3052.08 1770.72 3032.03 1794.68 3018.05C1818.63 3004.08 1845.85 2996.67 1873.58 2996.59H2374.48C2402.76 2996.54 2430.52 3004.17 2454.81 3018.65C2479.1 3033.14 2498.99 3053.93 2512.38 3078.83C2537.35 3125.53 2572.53 3185.46 2609.99 3248.99C2733.32 3459.03 2820.52 3613.12 2819.96 3683.82C2818.06 3766.06 2714.21 3943.97 2613.77 4116.01C2574.42 4183.7 2538.11 4248.36 2510.68 4297.89C2497.37 4322.94 2477.48 4343.88 2453.15 4358.47C2428.81 4373.06 2400.96 4380.75 2372.59 4380.7ZM1873.58 3048.96C1855.12 3048.87 1836.97 3053.73 1821.03 3063.04C1805.09 3072.35 1791.95 3085.77 1782.97 3101.9L1477.67 3643.36C1468.92 3658.96 1464.32 3676.53 1464.32 3694.41C1464.32 3712.29 1468.92 3729.86 1477.67 3745.46L1782.4 4274.82C1791.45 4290.61 1804.51 4303.72 1820.25 4312.85C1835.99 4321.98 1853.87 4326.8 1872.07 4326.82H2372.59C2391.46 4326.82 2409.96 4321.66 2426.1 4311.9C2442.24 4302.13 2455.4 4288.13 2464.14 4271.42C2491 4220 2528.65 4155.72 2568.37 4087.66C2656.33 3936.41 2765.86 3749.43 2767.56 3682.12C2767.56 3620.3 2650.47 3420.27 2564.59 3274.13C2526.76 3210.23 2491.57 3149.73 2466.03 3102.09C2457.14 3085.56 2443.93 3071.75 2427.81 3062.13C2411.69 3052.51 2393.26 3047.43 2374.48 3047.45L1873.58 3048.96ZM3878.69 4240.04H2674.68L2683.76 4206.76C2688.68 4189.18 2751.1 4033.02 2821.66 4033.02H3733.42C3811.92 4033.02 3865.83 4186.16 3871.51 4207.9L3878.69 4240.04ZM2746.75 4188.24H3808.51C3789.6 4144.94 3755.17 4086.33 3732.85 4086.33H2822.42C2805.2 4088.79 2768.31 4143.62 2746.75 4188.24ZM3673.64 3876.1H2876.89L2902.24 3827.7C2921.16 3793.29 2981.88 3688.17 2931.56 3605.18L2638.55 3097.55C2626.44 3076.75 2615.28 3059.74 2605.64 3045.56C2537.54 2942.71 2543.97 2932.12 2709.3 2660.07L2770.58 2559.3C2782.31 2540.39 2793.28 2522.81 2802.74 2508.25C2860.63 2418.45 2860.63 2418.45 2721.02 2191.2C2700.59 2157.92 2677.33 2119.92 2651.03 2076.63C2601.29 1994.95 2562.32 1925.38 2527.89 1860.34H2439.17C2425.65 1860.44 2412.34 1857 2400.57 1850.36C2388.79 1843.73 2378.95 1834.14 2372.02 1822.53L2313 1720.63C2306.13 1708.73 2302.51 1695.23 2302.51 1681.49C2302.51 1667.75 2306.13 1654.26 2313 1642.36L2379.21 1531.76C2386.32 1519.64 2396.63 1509.7 2409.01 1503.04C2421.38 1496.37 2435.35 1493.22 2449.39 1493.95L2560.24 1499.62C2573.17 1500.26 2585.74 1504.17 2596.75 1510.98C2607.77 1517.79 2616.88 1527.28 2623.23 1538.56L2683 1642.55C2689.89 1654.2 2693.53 1667.49 2693.53 1681.02C2693.53 1694.55 2689.89 1707.84 2683 1719.49L2635.9 1801.55L2949.15 2351.14H3630.13C3674.21 2246.59 3889.29 1888.89 3945.28 1797.39L3900.64 1719.68C3893.78 1707.71 3890.25 1694.12 3890.41 1680.32C3890.58 1666.53 3894.43 1653.03 3901.58 1641.22L3967.6 1530.81C3974.51 1519.37 3984.25 1509.88 3995.87 1503.26C4007.49 1496.64 4020.62 1493.11 4033.99 1493L4147.49 1498.86C4160.27 1499.5 4172.69 1503.28 4183.65 1509.88C4194.6 1516.48 4203.76 1525.68 4210.29 1536.67L4270.45 1641.03C4277.3 1652.66 4280.91 1665.92 4280.91 1679.41C4280.91 1692.91 4277.3 1706.16 4270.45 1717.79L4211.43 1820.45C4204.53 1832.08 4194.7 1841.7 4182.91 1848.34C4171.13 1854.97 4157.8 1858.4 4144.28 1858.26H4054.23C3952.09 2047.32 3873.59 2166.05 3821.19 2245.65C3712.99 2409.94 3712.99 2409.94 3819.49 2582.74C3847.29 2627.93 3881.91 2683.89 3922.96 2755.73C3929.77 2767.45 3935.63 2777.85 3941.87 2787.49C3951.71 2805.07 3960.79 2821.33 3974.98 2844.21C4027.94 2929.1 4005.81 2962.56 3957.38 3035.73C3939.6 3062.38 3917.47 3095.66 3892.12 3141.22L3642.81 3574.74C3637.3 3583.99 3630.97 3592.72 3623.89 3600.83C3570.36 3666.81 3583.98 3691.95 3620.11 3759.45C3632.03 3781.76 3645.65 3807.09 3657.94 3837.91L3673.64 3876.1ZM2963.15 3823.73H3593.25C3586.44 3810.12 3579.82 3797.83 3574.33 3785.92C3536.5 3716.72 3508.13 3662.27 3583.79 3569.06C3588.83 3563.18 3593.32 3556.85 3597.22 3550.16L3846.16 3117.02C3872.45 3070.14 3895.15 3035.92 3913.31 3008.31C3959.47 2938.93 3965.33 2930.04 3930.15 2873.89C3915.39 2850.26 3905.93 2833.43 3895.72 2815.09C3890.42 2805.45 3884.75 2796.19 3877.94 2783.9C3837.08 2712.44 3802.27 2656.85 3775.22 2612.04C3654.73 2416.56 3654.73 2405.4 3777.87 2218.61C3831.02 2137.88 3911.42 2016.13 4015.84 1821.59L4023.4 1807.6H4144.84C4149.2 1807.62 4153.49 1806.5 4157.28 1804.34C4161.06 1802.19 4164.21 1799.07 4166.41 1795.31L4225.62 1692.46C4227.76 1688.79 4228.89 1684.61 4228.89 1680.36C4228.89 1676.11 4227.76 1671.93 4225.62 1668.26L4165.46 1563.71C4163.36 1560.1 4160.39 1557.06 4156.83 1554.88C4153.26 1552.71 4149.21 1551.45 4145.03 1551.23L4034.94 1545.56C4030.43 1545.41 4025.95 1546.45 4021.97 1548.57C4017.98 1550.69 4014.63 1553.83 4012.24 1557.66L3946.41 1667.88C3944.13 1671.71 3942.93 1676.09 3942.93 1680.55C3942.93 1685.01 3944.13 1689.38 3946.41 1693.21L4007.13 1797.76L3999 1811.19C3890.99 1986.26 3685.75 2336.4 3674.97 2383.09L3670.24 2403.32H2918.51L2578.02 1804.76L2582.75 1788.12L2637.79 1692.27C2639.88 1688.58 2640.98 1684.41 2640.98 1680.17C2640.98 1675.93 2639.88 1671.76 2637.79 1668.07L2578.21 1563.71C2576.08 1560.1 2573.08 1557.1 2569.47 1554.99C2565.86 1552.87 2561.77 1551.71 2557.59 1551.61L2447.12 1545.94C2442.73 1545.88 2438.39 1546.97 2434.55 1549.09C2430.7 1551.21 2427.47 1554.29 2425.18 1558.04L2358.97 1668.26C2356.78 1672.16 2355.63 1676.55 2355.63 1681.02C2355.63 1685.49 2356.78 1689.88 2358.97 1693.78L2417.8 1795.31C2419.97 1799.15 2423.14 1802.33 2426.96 1804.53C2430.79 1806.72 2435.14 1807.85 2439.55 1807.78H2559.67L2567.24 1821.77C2602.99 1888.7 2642.9 1962.81 2696.43 2048.65C2722.73 2091.94 2745.8 2129.75 2766.23 2162.08C2914.16 2403.32 2923.05 2417.69 2847.2 2535.1C2837.93 2549.47 2828.28 2565.72 2815.79 2585.01L2754.7 2685.97C2600.15 2939.87 2600.15 2939.87 2649.9 3014.93C2659.93 3030.06 2671.46 3047.64 2684.33 3069.57L2977.15 3577.01C3030.49 3667.75 2992.66 3767.77 2964.29 3823.73H2963.15Z" stroke="#EED600" stroke-width="60" mask="url(#path-2-outside-1_3479_2734)" id="svg_5"/><image id="svg_7" x="3699" y="852" width="10" height="10" xmlns:xlink="http://www.w3.org/1999/xlink" xlink:href="logo/vector_paint_icon256.png" style="color: rgb(0, 0, 0);"/><polyline fill="none" stroke="#000000" stroke-dashoffset="" fill-rule="nonzero" marker-start="" marker-mid="" marker-end="" id="svg_10" points="759.4999409914025,3034.39981815219 759.4999409914025,3034.39981815219 " style="color: rgb(255, 255, 255);"/></g></svg>